Coordinates
version=1
nRows=11
nColumns=36
inDegrees=yes

Units are S.I. units (second, meters, Newtons, ...)
If the header above contains a line with 'inDegrees', this indicates whether rotational values are in degrees (yes) or radians (no).

endheader
time	pelvis_tilt	pelvis_list	pelvis_rotation	pelvis_tx	pelvis_ty	pelvis_tz	hip_flexion_r	hip_adduction_r	hip_rotation_r	knee_angle_r	knee_angle_r_beta	ankle_angle_r	subtalar_angle_r	mtp_angle_r	hip_flexion_l	hip_adduction_l	hip_rotation_l	knee_angle_l	knee_angle_l_beta	ankle_angle_l	subtalar_angle_l	mtp_angle_l	lumbar_extension	lumbar_bending	lumbar_rotation	arm_flex_r	arm_add_r	arm_rot_r	elbow_flex_r	pro_sup_r	arm_flex_l	arm_add_l	arm_rot_l	elbow_flex_l	pro_sup_l
      0.00000000	     -1.55154771	     -5.82063730	      6.24026480	      0.32348088	      0.87575286	     -0.29627197	     53.38629367	     -2.20671999	      1.49987480	     33.91196613	      0.59187546	    -22.08744803	    -19.26366997	     -6.83669382	     44.29561975	      6.15197174	     -1.05490029	     71.10354290	      1.24099093	      9.31737219	    -29.27883067	     -6.83669382	    -37.64175493	     -2.10136199	      0.62239551	     54.68447722	      6.09402407	     55.10067399	    119.66630528	    103.95238997	     56.41058337	     -0.30656865	     33.79896131	    112.59630447	     93.15907052
      0.01666670	     -3.87628918	     -6.48822618	      6.43344684	      0.32792586	      0.87104754	     -0.29887436	     56.45962778	     -2.32396885	      2.01679479	     31.72041580	      0.55362570	    -15.31686736	    -18.33729189	     -6.96167018	     42.54204632	      6.00624958	      1.17776782	     65.41686390	      1.14173966	     13.86858111	    -17.92941535	     -6.96167018	    -35.47816789	     -1.49817307	      0.17606569	     54.45409196	      6.08072834	     59.42214663	    118.87483624	    102.21467220	     52.83554005	      0.49389716	     34.01823735	    116.35228599	     91.71937595
      0.03333330	     -5.02670968	     -6.85062655	      6.95841402	      0.33581984	      0.86482622	     -0.29667191	     57.76690797	     -3.07576053	     -0.06940220	     31.92620709	      0.55721743	    -13.05374019	    -15.84645199	     -6.96879122	     42.28452217	      5.96847941	      2.86721770	     63.89456714	      1.11517057	     14.78120522	    -16.18010111	     -6.96879122	    -34.48960410	     -1.85557110	     -0.27450913	     53.50769540	      4.91916142	     61.95566834	    119.09085467	    103.64299759	     48.81516120	      1.74528292	     49.62358991	    124.23031920	     94.08373700
      0.05000000	     -5.41965316	     -6.51698147	      7.72114141	      0.33674268	      0.86227410	     -0.29744936	     58.56486665	     -4.06707572	     -0.91531570	     32.27224046	      0.56325685	    -11.65026041	    -16.75658612	     -7.08399375	     43.47584074	      6.93616868	      3.33717113	     65.43773991	      1.14210402	     19.75376449	    -12.83547976	     -7.08399375	    -34.48719007	     -2.41056888	     -0.58169817	     53.65355766	      3.66255915	     63.66936276	    118.27454916	    105.13885704	     48.34565246	      1.55211406	     60.56022066	    125.57248361	     97.89407935
      0.06666670	     -5.52224482	     -6.48502368	      8.04366153	      0.33625050	      0.85565909	     -0.29734006	     59.35585612	     -4.74801054	     -1.76549928	     33.15681880	      0.57869566	    -11.22449309	    -18.78348106	     -7.15579709	     44.57674269	      7.31659023	      3.78720727	     67.17676457	      1.17245572	     22.75933716	    -11.67984043	     -7.15579709	    -34.26170703	     -2.27440809	     -0.96445351	     53.89928416	      3.44507302	     64.52218094	    117.07185171	    100.75712954	     49.87820678	      1.63711538	     67.28645234	    125.01218030	     94.92211374
      0.08333330	     -5.45139831	     -6.51241122	      8.83307526	      0.33472764	      0.85151936	     -0.29768430	     59.92021864	     -5.43315146	     -2.24811567	     33.81769959	      0.59023020	    -11.05906202	    -20.51949971	     -7.17645658	     45.67972749	      7.66186893	      3.93427766	     69.07750936	      1.20562998	     24.62108241	    -10.98215287	     -7.17645658	    -34.28399265	     -2.00733983	     -0.11437279	     53.92295332	      2.53417860	     63.76504572	    117.52008448	     99.85615337	     52.37647067	      2.45080401	     72.69620085	    124.58866072	     94.13034191
      0.10000000	     -5.41350667	     -6.52469764	      8.69540909	      0.33387717	      0.84350336	     -0.29744243	     60.97123665	     -5.59682660	     -2.43428618	     34.75595354	      0.60660582	    -10.15223556	    -21.83698327	     -7.17759904	     46.38819124	      7.73210345	      3.89531857	     70.52743793	      1.23093600	     25.73584596	    -11.30045038	     -7.17759904	    -34.35363131	     -1.92717580	      0.03154444	     54.33802568	      2.41007531	     62.99425855	    117.63050938	     99.73946518	     54.32598809	      1.50244294	     71.50590799	    124.40832063	     93.98145242
      0.11666670	     -5.83629807	     -6.58409838	      8.93329991	      0.33691688	      0.83952972	     -0.29572942	     62.05057277	     -5.66716924	     -2.17659024	     35.25357199	      0.61529090	     -9.84377624	    -23.24111651	     -7.18284352	     47.07526302	      7.54656932	      3.98090096	     71.41569932	      1.24643909	     26.58118045	    -10.36141027	     -7.18284352	    -33.81593585	     -2.02117520	      0.37206934	     53.55707613	      1.81576310	     60.38677262	    117.02774315	     99.04164019	     57.02953586	     -0.12881750	     64.15020498	    121.32382780	     92.82960713
      0.13333330	     -5.80388419	     -6.53750787	      9.06256494	      0.33655011	      0.83956665	     -0.29555164	     62.40768911	     -5.68601982	     -2.16281367	     35.61485492	      0.62159648	     -9.39607192	    -23.08908628	     -7.21723235	     47.12657015	      7.58512375	      3.91936598	     71.74106732	      1.25211783	     26.68422528	    -10.22042026	     -7.21723235	    -34.26739329	     -2.30612189	      0.06411871	     53.26076009	      1.75715724	     59.40512964	    116.34154562	     96.64496415	     58.00873202	     -1.67823800	     54.98349124	    116.98441770	     89.70090520
      0.15000000	     -6.11517108	     -6.44563703	      9.19750281	      0.34144739	      0.83955000	     -0.29288284	     62.28856882	     -5.56071539	     -1.83608394	     34.83015624	      0.60790091	     -9.31955454	    -22.15139219	     -7.22099814	     47.13465102	      7.42105081	      3.85360062	     71.42493655	      1.24660031	     27.36732137	     -9.55581796	     -7.22099814	    -34.47176641	     -2.86774562	     -0.49132794	     52.43227228	      2.14538521	     59.81198015	    116.04727704	     96.49338309	     57.66980589	     -1.81275424	     51.34963676	    115.27524061	     88.82200034
      0.16666670	     -6.22195533	     -6.35091714	      9.28432019	      0.33768384	      0.83402621	     -0.29580413	     62.27021638	     -5.90859981	     -1.82441688	     33.94833786	      0.59251027	     -8.17929228	    -20.48076751	     -7.24955582	     47.68401219	      7.83719845	      3.70982052	     72.11252574	      1.25860101	     28.26015969	     -9.91428551	     -7.24955582	    -34.80157285	     -2.79086067	     -1.39853832	     52.84307635	      2.64873524	     61.53380417	    115.99269925	     96.07118640	     56.78325649	     -1.46016741	     53.20353320	    117.10623068	     84.72943499
